<svg xmlns="http://www.w3.org/2000/svg" version="1.1" xmlns:xlink="http://www.w3.org/1999/xlink" xmlns:svgjs="http://svgjs.dev/svgjs" viewBox="0 0 800 800"><g stroke-width="2.5" stroke="#b98a3cff" fill="none" stroke-linecap="round" transform="matrix(1,0,0,1,-5,-7.481361389160156)"><path d="M10,10C26.435185185185183,14.791666666666668,53.93518518518518,38.416666666666664,88.88888888888889,33C123.84259259259258,27.583333333333336,140.74074074074073,-18.083333333333332,177.77777777777777,-16C214.8148148148148,-13.916666666666666,229.6296296296296,44.041666666666664,266.66666666666663,43C303.7037037037037,41.958333333333336,318.5185185185185,-19.333333333333332,355.55555555555554,-21C392.5925925925926,-22.666666666666668,407.40740740740745,32.083333333333336,444.44444444444446,35C481.48148148148147,37.916666666666664,496.29629629629625,-5.333333333333334,533.3333333333333,-7C570.3703703703703,-8.666666666666666,585.1851851851851,24.5,622.2222222222222,27C659.2592592592592,29.5,674.074074074074,-1.25,711.1111111111111,5C748.1481481481482,11.25,781.4814814814815,46.16666666666667,800,57"></path><path d="M10,10C26.435185185185183,14.791666666666668,53.93518518518518,38.416666666666664,88.88888888888889,33C123.84259259259258,27.583333333333336,140.74074074074073,-18.083333333333332,177.77777777777777,-16C214.8148148148148,-13.916666666666666,229.6296296296296,44.041666666666664,266.66666666666663,43C303.7037037037037,41.958333333333336,318.5185185185185,-19.333333333333332,355.55555555555554,-21C392.5925925925926,-22.666666666666668,407.40740740740745,32.083333333333336,444.44444444444446,35C481.48148148148147,37.916666666666664,496.29629629629625,-5.333333333333334,533.3333333333333,-7C570.3703703703703,-8.666666666666666,585.1851851851851,24.5,622.2222222222222,27C659.2592592592592,29.5,674.074074074074,-1.25,711.1111111111111,5C748.1481481481482,11.25,781.4814814814815,46.16666666666667,800,57" transform="matrix(1,0,0,1,0,779)"></path><path d="M10,10C26.435185185185183,14.791666666666668,53.93518518518518,38.416666666666664,88.88888888888889,33C123.84259259259258,27.583333333333336,140.74074074074073,-18.083333333333332,177.77777777777777,-16C214.8148148148148,-13.916666666666666,229.6296296296296,44.041666666666664,266.66666666666663,43C303.7037037037037,41.958333333333336,318.5185185185185,-19.333333333333332,355.55555555555554,-21C392.5925925925926,-22.666666666666668,407.40740740740745,32.083333333333336,444.44444444444446,35C481.48148148148147,37.916666666666664,496.29629629629625,-5.333333333333334,533.3333333333333,-7C570.3703703703703,-8.666666666666666,585.1851851851851,24.5,622.2222222222222,27C659.2592592592592,29.5,674.074074074074,-1.25,711.1111111111111,5C748.1481481481482,11.25,781.4814814814815,46.16666666666667,800,57" transform="matrix(1,0,0,1,0,738)"></path><path d="M10,10C26.435185185185183,14.791666666666668,53.93518518518518,38.416666666666664,88.88888888888889,33C123.84259259259258,27.583333333333336,140.74074074074073,-18.083333333333332,177.77777777777777,-16C214.8148148148148,-13.916666666666666,229.6296296296296,44.041666666666664,266.66666666666663,43C303.7037037037037,41.958333333333336,318.5185185185185,-19.333333333333332,355.55555555555554,-21C392.5925925925926,-22.666666666666668,407.40740740740745,32.083333333333336,444.44444444444446,35C481.48148148148147,37.916666666666664,496.29629629629625,-5.333333333333334,533.3333333333333,-7C570.3703703703703,-8.666666666666666,585.1851851851851,24.5,622.2222222222222,27C659.2592592592592,29.5,674.074074074074,-1.25,711.1111111111111,5C748.1481481481482,11.25,781.4814814814815,46.16666666666667,800,57" transform="matrix(1,0,0,1,0,697)"></path><path d="M10,10C26.435185185185183,14.791666666666668,53.93518518518518,38.416666666666664,88.88888888888889,33C123.84259259259258,27.583333333333336,140.74074074074073,-18.083333333333332,177.77777777777777,-16C214.8148148148148,-13.916666666666666,229.6296296296296,44.041666666666664,266.66666666666663,43C303.7037037037037,41.958333333333336,318.5185185185185,-19.333333333333332,355.55555555555554,-21C392.5925925925926,-22.666666666666668,407.40740740740745,32.083333333333336,444.44444444444446,35C481.48148148148147,37.916666666666664,496.29629629629625,-5.333333333333334,533.3333333333333,-7C570.3703703703703,-8.666666666666666,585.1851851851851,24.5,622.2222222222222,27C659.2592592592592,29.5,674.074074074074,-1.25,711.1111111111111,5C748.1481481481482,11.25,781.4814814814815,46.16666666666667,800,57" transform="matrix(1,0,0,1,0,656)"></path><path d="M10,10C26.435185185185183,14.791666666666668,53.93518518518518,38.416666666666664,88.88888888888889,33C123.84259259259258,27.583333333333336,140.74074074074073,-18.083333333333332,177.77777777777777,-16C214.8148148148148,-13.916666666666666,229.6296296296296,44.041666666666664,266.66666666666663,43C303.7037037037037,41.958333333333336,318.5185185185185,-19.333333333333332,355.55555555555554,-21C392.5925925925926,-22.666666666666668,407.40740740740745,32.083333333333336,444.44444444444446,35C481.48148148148147,37.916666666666664,496.29629629629625,-5.333333333333334,533.3333333333333,-7C570.3703703703703,-8.666666666666666,585.1851851851851,24.5,622.2222222222222,27C659.2592592592592,29.5,674.074074074074,-1.25,711.1111111111111,5C748.1481481481482,11.25,781.4814814814815,46.16666666666667,800,57" transform="matrix(1,0,0,1,0,615)"></path><path d="M10,10C26.435185185185183,14.791666666666668,53.93518518518518,38.416666666666664,88.88888888888889,33C123.84259259259258,27.583333333333336,140.74074074074073,-18.083333333333332,177.77777777777777,-16C214.8148148148148,-13.916666666666666,229.6296296296296,44.041666666666664,266.66666666666663,43C303.7037037037037,41.958333333333336,318.5185185185185,-19.333333333333332,355.55555555555554,-21C392.5925925925926,-22.666666666666668,407.40740740740745,32.083333333333336,444.44444444444446,35C481.48148148148147,37.916666666666664,496.29629629629625,-5.333333333333334,533.3333333333333,-7C570.3703703703703,-8.666666666666666,585.1851851851851,24.5,622.2222222222222,27C659.2592592592592,29.5,674.074074074074,-1.25,711.1111111111111,5C748.1481481481482,11.25,781.4814814814815,46.16666666666667,800,57" transform="matrix(1,0,0,1,0,574)"></path><path d="M10,10C26.435185185185183,14.791666666666668,53.93518518518518,38.416666666666664,88.88888888888889,33C123.84259259259258,27.583333333333336,140.74074074074073,-18.083333333333332,177.77777777777777,-16C214.8148148148148,-13.916666666666666,229.6296296296296,44.041666666666664,266.66666666666663,43C303.7037037037037,41.958333333333336,318.5185185185185,-19.333333333333332,355.55555555555554,-21C392.5925925925926,-22.666666666666668,407.40740740740745,32.083333333333336,444.44444444444446,35C481.48148148148147,37.916666666666664,496.29629629629625,-5.333333333333334,533.3333333333333,-7C570.3703703703703,-8.666666666666666,585.1851851851851,24.5,622.2222222222222,27C659.2592592592592,29.5,674.074074074074,-1.25,711.1111111111111,5C748.1481481481482,11.25,781.4814814814815,46.16666666666667,800,57" transform="matrix(1,0,0,1,0,533)"></path><path d="M10,10C26.435185185185183,14.791666666666668,53.93518518518518,38.416666666666664,88.88888888888889,33C123.84259259259258,27.583333333333336,140.74074074074073,-18.083333333333332,177.77777777777777,-16C214.8148148148148,-13.916666666666666,229.6296296296296,44.041666666666664,266.66666666666663,43C303.7037037037037,41.958333333333336,318.5185185185185,-19.333333333333332,355.55555555555554,-21C392.5925925925926,-22.666666666666668,407.40740740740745,32.083333333333336,444.44444444444446,35C481.48148148148147,37.916666666666664,496.29629629629625,-5.333333333333334,533.3333333333333,-7C570.3703703703703,-8.666666666666666,585.1851851851851,24.5,622.2222222222222,27C659.2592592592592,29.5,674.074074074074,-1.25,711.1111111111111,5C748.1481481481482,11.25,781.4814814814815,46.16666666666667,800,57" transform="matrix(1,0,0,1,0,492)"></path><path d="M10,10C26.435185185185183,14.791666666666668,53.93518518518518,38.416666666666664,88.88888888888889,33C123.84259259259258,27.583333333333336,140.74074074074073,-18.083333333333332,177.77777777777777,-16C214.8148148148148,-13.916666666666666,229.6296296296296,44.041666666666664,266.66666666666663,43C303.7037037037037,41.958333333333336,318.5185185185185,-19.333333333333332,355.55555555555554,-21C392.5925925925926,-22.666666666666668,407.40740740740745,32.083333333333336,444.44444444444446,35C481.48148148148147,37.916666666666664,496.29629629629625,-5.333333333333334,533.3333333333333,-7C570.3703703703703,-8.666666666666666,585.1851851851851,24.5,622.2222222222222,27C659.2592592592592,29.5,674.074074074074,-1.25,711.1111111111111,5C748.1481481481482,11.25,781.4814814814815,46.16666666666667,800,57" transform="matrix(1,0,0,1,0,451)"></path><path d="M10,10C26.435185185185183,14.791666666666668,53.93518518518518,38.416666666666664,88.88888888888889,33C123.84259259259258,27.583333333333336,140.74074074074073,-18.083333333333332,177.77777777777777,-16C214.8148148148148,-13.916666666666666,229.6296296296296,44.041666666666664,266.66666666666663,43C303.7037037037037,41.958333333333336,318.5185185185185,-19.333333333333332,355.55555555555554,-21C392.5925925925926,-22.666666666666668,407.40740740740745,32.083333333333336,444.44444444444446,35C481.48148148148147,37.916666666666664,496.29629629629625,-5.333333333333334,533.3333333333333,-7C570.3703703703703,-8.666666666666666,585.1851851851851,24.5,622.2222222222222,27C659.2592592592592,29.5,674.074074074074,-1.25,711.1111111111111,5C748.1481481481482,11.25,781.4814814814815,46.16666666666667,800,57" transform="matrix(1,0,0,1,0,410)"></path><path d="M10,10C26.435185185185183,14.791666666666668,53.93518518518518,38.416666666666664,88.88888888888889,33C123.84259259259258,27.583333333333336,140.74074074074073,-18.083333333333332,177.77777777777777,-16C214.8148148148148,-13.916666666666666,229.6296296296296,44.041666666666664,266.66666666666663,43C303.7037037037037,41.958333333333336,318.5185185185185,-19.333333333333332,355.55555555555554,-21C392.5925925925926,-22.666666666666668,407.40740740740745,32.083333333333336,444.44444444444446,35C481.48148148148147,37.916666666666664,496.29629629629625,-5.333333333333334,533.3333333333333,-7C570.3703703703703,-8.666666666666666,585.1851851851851,24.5,622.2222222222222,27C659.2592592592592,29.5,674.074074074074,-1.25,711.1111111111111,5C748.1481481481482,11.25,781.4814814814815,46.16666666666667,800,57" transform="matrix(1,0,0,1,0,369)"></path><path d="M10,10C26.435185185185183,14.791666666666668,53.93518518518518,38.416666666666664,88.88888888888889,33C123.84259259259258,27.583333333333336,140.74074074074073,-18.083333333333332,177.77777777777777,-16C214.8148148148148,-13.916666666666666,229.6296296296296,44.041666666666664,266.66666666666663,43C303.7037037037037,41.958333333333336,318.5185185185185,-19.333333333333332,355.55555555555554,-21C392.5925925925926,-22.666666666666668,407.40740740740745,32.083333333333336,444.44444444444446,35C481.48148148148147,37.916666666666664,496.29629629629625,-5.333333333333334,533.3333333333333,-7C570.3703703703703,-8.666666666666666,585.1851851851851,24.5,622.2222222222222,27C659.2592592592592,29.5,674.074074074074,-1.25,711.1111111111111,5C748.1481481481482,11.25,781.4814814814815,46.16666666666667,800,57" transform="matrix(1,0,0,1,0,328)"></path><path d="M10,10C26.435185185185183,14.791666666666668,53.93518518518518,38.416666666666664,88.88888888888889,33C123.84259259259258,27.583333333333336,140.74074074074073,-18.083333333333332,177.77777777777777,-16C214.8148148148148,-13.916666666666666,229.6296296296296,44.041666666666664,266.66666666666663,43C303.7037037037037,41.958333333333336,318.5185185185185,-19.333333333333332,355.55555555555554,-21C392.5925925925926,-22.666666666666668,407.40740740740745,32.083333333333336,444.44444444444446,35C481.48148148148147,37.916666666666664,496.29629629629625,-5.333333333333334,533.3333333333333,-7C570.3703703703703,-8.666666666666666,585.1851851851851,24.5,622.2222222222222,27C659.2592592592592,29.5,674.074074074074,-1.25,711.1111111111111,5C748.1481481481482,11.25,781.4814814814815,46.16666666666667,800,57" transform="matrix(1,0,0,1,0,287)"></path><path d="M10,10C26.435185185185183,14.791666666666668,53.93518518518518,38.416666666666664,88.88888888888889,33C123.84259259259258,27.583333333333336,140.74074074074073,-18.083333333333332,177.77777777777777,-16C214.8148148148148,-13.916666666666666,229.6296296296296,44.041666666666664,266.66666666666663,43C303.7037037037037,41.958333333333336,318.5185185185185,-19.333333333333332,355.55555555555554,-21C392.5925925925926,-22.666666666666668,407.40740740740745,32.083333333333336,444.44444444444446,35C481.48148148148147,37.916666666666664,496.29629629629625,-5.333333333333334,533.3333333333333,-7C570.3703703703703,-8.666666666666666,585.1851851851851,24.5,622.2222222222222,27C659.2592592592592,29.5,674.074074074074,-1.25,711.1111111111111,5C748.1481481481482,11.25,781.4814814814815,46.16666666666667,800,57" transform="matrix(1,0,0,1,0,246)"></path><path d="M10,10C26.435185185185183,14.791666666666668,53.93518518518518,38.416666666666664,88.88888888888889,33C123.84259259259258,27.583333333333336,140.74074074074073,-18.083333333333332,177.77777777777777,-16C214.8148148148148,-13.916666666666666,229.6296296296296,44.041666666666664,266.66666666666663,43C303.7037037037037,41.958333333333336,318.5185185185185,-19.333333333333332,355.55555555555554,-21C392.5925925925926,-22.666666666666668,407.40740740740745,32.083333333333336,444.44444444444446,35C481.48148148148147,37.916666666666664,496.29629629629625,-5.333333333333334,533.3333333333333,-7C570.3703703703703,-8.666666666666666,585.1851851851851,24.5,622.2222222222222,27C659.2592592592592,29.5,674.074074074074,-1.25,711.1111111111111,5C748.1481481481482,11.25,781.4814814814815,46.16666666666667,800,57" transform="matrix(1,0,0,1,0,205)"></path><path d="M10,10C26.435185185185183,14.791666666666668,53.93518518518518,38.416666666666664,88.88888888888889,33C123.84259259259258,27.583333333333336,140.74074074074073,-18.083333333333332,177.77777777777777,-16C214.8148148148148,-13.916666666666666,229.6296296296296,44.041666666666664,266.66666666666663,43C303.7037037037037,41.958333333333336,318.5185185185185,-19.333333333333332,355.55555555555554,-21C392.5925925925926,-22.666666666666668,407.40740740740745,32.083333333333336,444.44444444444446,35C481.48148148148147,37.916666666666664,496.29629629629625,-5.333333333333334,533.3333333333333,-7C570.3703703703703,-8.666666666666666,585.1851851851851,24.5,622.2222222222222,27C659.2592592592592,29.5,674.074074074074,-1.25,711.1111111111111,5C748.1481481481482,11.25,781.4814814814815,46.16666666666667,800,57" transform="matrix(1,0,0,1,0,164)"></path><path d="M10,10C26.435185185185183,14.791666666666668,53.93518518518518,38.416666666666664,88.88888888888889,33C123.84259259259258,27.583333333333336,140.74074074074073,-18.083333333333332,177.77777777777777,-16C214.8148148148148,-13.916666666666666,229.6296296296296,44.041666666666664,266.66666666666663,43C303.7037037037037,41.958333333333336,318.5185185185185,-19.333333333333332,355.55555555555554,-21C392.5925925925926,-22.666666666666668,407.40740740740745,32.083333333333336,444.44444444444446,35C481.48148148148147,37.916666666666664,496.29629629629625,-5.333333333333334,533.3333333333333,-7C570.3703703703703,-8.666666666666666,585.1851851851851,24.5,622.2222222222222,27C659.2592592592592,29.5,674.074074074074,-1.25,711.1111111111111,5C748.1481481481482,11.25,781.4814814814815,46.16666666666667,800,57" transform="matrix(1,0,0,1,0,123)"></path><path d="M10,10C26.435185185185183,14.791666666666668,53.93518518518518,38.416666666666664,88.88888888888889,33C123.84259259259258,27.583333333333336,140.74074074074073,-18.083333333333332,177.77777777777777,-16C214.8148148148148,-13.916666666666666,229.6296296296296,44.041666666666664,266.66666666666663,43C303.7037037037037,41.958333333333336,318.5185185185185,-19.333333333333332,355.55555555555554,-21C392.5925925925926,-22.666666666666668,407.40740740740745,32.083333333333336,444.44444444444446,35C481.48148148148147,37.916666666666664,496.29629629629625,-5.333333333333334,533.3333333333333,-7C570.3703703703703,-8.666666666666666,585.1851851851851,24.5,622.2222222222222,27C659.2592592592592,29.5,674.074074074074,-1.25,711.1111111111111,5C748.1481481481482,11.25,781.4814814814815,46.16666666666667,800,57" transform="matrix(1,0,0,1,0,82)"></path><path d="M10,10C26.435185185185183,14.791666666666668,53.93518518518518,38.416666666666664,88.88888888888889,33C123.84259259259258,27.583333333333336,140.74074074074073,-18.083333333333332,177.77777777777777,-16C214.8148148148148,-13.916666666666666,229.6296296296296,44.041666666666664,266.66666666666663,43C303.7037037037037,41.958333333333336,318.5185185185185,-19.333333333333332,355.55555555555554,-21C392.5925925925926,-22.666666666666668,407.40740740740745,32.083333333333336,444.44444444444446,35C481.48148148148147,37.916666666666664,496.29629629629625,-5.333333333333334,533.3333333333333,-7C570.3703703703703,-8.666666666666666,585.1851851851851,24.5,622.2222222222222,27C659.2592592592592,29.5,674.074074074074,-1.25,711.1111111111111,5C748.1481481481482,11.25,781.4814814814815,46.16666666666667,800,57" transform="matrix(1,0,0,1,0,41)"></path></g></svg>