<?xml version="1.0" encoding="UTF-8" standalone="no"?>
<!-- Created with Inkscape (http://www.inkscape.org/) -->

<svg
   width="22.299688mm"
   height="21.675467mm"
   viewBox="0 0 22.299688 21.675467"
   version="1.1"
   id="svg1"
   xmlns="http://www.w3.org/2000/svg"
   xmlns:svg="http://www.w3.org/2000/svg">
  <defs
     id="defs1" />
  <ellipse
     style="fill:#c8a89a;fill-opacity:1;stroke:#b98a3c;stroke-width:0.253272;stroke-dasharray:0.253272, 0.506544;stroke-dashoffset:0;stroke-opacity:1"
     id="path4"
     cx="11.038883"
     cy="11.035296"
     rx="10.563397"
     ry="10.563546" />
  <path
     style="fill:#ffffff;fill-opacity:1;stroke:none;stroke-width:0.248;stroke-dasharray:0.248, 0.496001;stroke-dashoffset:0;stroke-opacity:1"
     id="path5"
     d="m 7.8818333,8.4579756 c 0.01977,0.04925 0.03952,0.09852 0.05933,0.14776 0.0421,0.104669 0.08902,0.207522 0.126404,0.313969 0.0441,0.125576 0.08055,0.25373 0.117815,0.3815 0.100012,0.342943 0.147903,0.528919 0.222628,0.8783624 0.03001,0.140321 0.05528,0.281613 0.08292,0.42242 0.121153,0.621743 0.210365,1.250266 0.240542,1.883203 0.02261,0.310444 0.0011,0.620312 -0.02242,0.929786 -0.01221,0.217054 -0.06821,0.426112 -0.153535,0.624964 -0.04713,0.116716 -0.117229,0.223037 -0.192574,0.323351 -0.07463,0.10596 -0.176386,0.188782 -0.290717,0.248319 -0.10874,0.06031 -0.211451,0.09569 -0.336588,0.09277 -0.157489,-0.02591 -0.306505,-0.07903 -0.4508176,-0.146207 -0.075881,-0.03308 -0.065216,-0.02511 -0.1355563,-0.06906 -0.021183,-0.01323 -0.084086,-0.05388 -0.062427,-0.04144 3.2945846,1.892049 1.9954849,1.237813 1.5076899,0.859535 -0.06082,-0.05347 -0.107238,-0.121074 -0.116355,-0.202724 0.01597,-0.100337 0.09081,-0.183759 0.153858,-0.259385 0.172366,-0.201471 0.389592,-0.353579 0.612141,-0.494055 0.175451,-0.11226 0.372879,-0.177877 0.570628,-0.237646 0.171765,-0.05039 0.3482367,-0.06707 0.5260207,-0.07866 0.256606,-0.01901 0.51148,-0.0043 0.766343,0.0272 0.364204,0.04388 0.723202,0.120874 1.083871,0.186585 0.301714,0.05362 0.596682,0.13691 0.895873,0.201901 0.245367,0.05131 0.49606,0.06226 0.745829,0.0548 0.180117,-0.0154 0.361234,-0.03645 0.5391,-0.06957 0.08057,-0.015 0.159911,-0.03602 0.240107,-0.05291 0.164975,-0.06088 0.34458,-0.08625 0.504822,-0.160293 0.0325,-0.01502 0.06316,-0.03373 0.09475,-0.0506 0.182097,-0.09682 0.347779,-0.215534 0.503669,-0.349736 0.110006,-0.101921 0.195964,-0.223895 0.269312,-0.353777 0.05578,-0.07751 0.07853,-0.168091 0.10618,-0.257609 0.08332,-0.269798 -0.03106,0.118963 0.05842,-0.188877 0.05224,-0.211789 0.133698,-0.414535 0.198251,-0.622671 0.03738,-0.11563 0.06092,-0.235216 0.07481,-0.355793 9.79e-4,-0.135232 0.0058,-0.270389 0.0116,-0.405494 9.26e-4,-0.248489 -0.01266,-0.497286 -0.02257,-0.745683 -0.006,-0.230204 -0.03453,-0.458296 -0.0809,-0.683643 C 16.262647,9.9146956 16.121716,9.6619846 15.96723,9.4064436 15.780787,9.1059546 15.595024,8.8049226 15.397801,8.5113406 15.247229,8.2963827 15.036459,8.1396737 14.826437,7.9874537 14.15684,7.5550248 13.445567,7.1737541 12.756439,6.7851397 12.67649,6.7400547 12.591989,6.7035665 12.509755,6.6627974 12.092077,6.4557247 12.326023,6.5722189 11.896496,6.3575174 11.612789,6.2105747 11.323678,6.0734703 11.030501,5.9464166 10.947841,5.9105944 10.865487,5.8737697 10.780906,5.8427528 10.616136,5.7823297 10.441449,5.7386332 10.272438,5.6925886 10.01148,5.6323046 9.7451433,5.5972596 9.4788183,5.571161 9.3941283,5.562861 9.3094263,5.552336 9.2243423,5.550719 9.0021103,5.546489 8.9142413,5.568335 8.6934823,5.599904 8.1518463,5.6877467 7.6362343,5.8804327 7.1160181,6.0476737 7.0349072,6.0775518 6.9534695,6.1065583 6.8726848,6.1373076 6.7932169,6.1675561 6.7150013,6.20106 6.6352882,6.2306563 6.3842753,6.3238534 6.1291199,6.405103 5.8735097,6.4844957 c -0.151596,0.036748 -0.2999624,0.087963 -0.4368652,0.1635059 -0.056746,0.031312 -0.1111123,0.066764 -0.1671505,0.099326 -0.05794,0.037601 -0.118536,0.070744 -0.1787332,0.104508 -0.014206,0.00797 -0.030139,0.012951 -0.043482,0.022294 -0.026969,0.018883 -0.049403,0.04355 -0.074848,0.064442 -0.040768,0.043897 -0.02177,0.020495 -0.056833,0.070338 0,0 1.7024749,1.0026734 1.7024749,1.0026734 v 0 C 6.6323467,7.990818 6.6237527,8.001633 6.6448717,7.979962 6.7211937,7.909674 6.8137282,7.8591477 6.895304,7.795382 7.0659023,7.6808632 7.2457878,7.6169256 7.4331953,7.5356919 7.8204073,7.36842 8.2065143,7.1981214 8.6039913,7.0559772 c 0.50396,-0.1809768 1.020475,-0.3417258 1.5517657,-0.4175834 0.08851,-0.00647 0.176805,-0.017203 0.26552,-0.019402 0.16049,-0.00398 0.3421,0.010964 0.501711,0.027982 0.261186,0.027848 0.52057,0.071325 0.773673,0.1427964 0.08335,0.025429 0.167457,0.048489 0.250046,0.076288 0.448895,0.1510927 0.874635,0.3633475 1.298944,0.5713185 0.105959,0.053784 0.212383,0.1066607 0.317878,0.1613514 0.107818,0.055896 0.215417,0.1122442 0.322035,0.1703964 0.09841,0.053674 0.389964,0.221275 0.292989,0.1650537 -0.462136,-0.2679248 -0.925926,-0.5329891 -1.388491,-0.8001733 -0.04851,-0.028018 0.09787,0.054535 0.14631,0.082671 0.04604,0.026743 0.0914,0.054636 0.137095,0.081954 0.207628,0.1348714 0.403179,0.2882196 0.579993,0.4619326 0.232957,0.2767126 0.439913,0.5757886 0.617423,0.8910021 0.05369,0.09699 0.112645,0.191142 0.162711,0.290049 0.07009,0.138461 0.11993,0.286518 0.162451,0.435309 0.0028,0.0099 0.05424,0.189355 0.05595,0.197072 0.03406,0.153905 0.04486,0.311868 0.06221,0.4681034 0.01295,0.13293 0.021,0.265726 0.01784,0.399449 -0.0027,0.116029 -0.009,0.115784 -0.01622,0.225178 -0.0019,0.02805 -0.0022,0.05618 -0.0033,0.08427 -0.0037,0.07687 -0.0085,0.153234 -0.0188,0.22956 -0.0053,0.03904 -0.01427,0.07757 -0.01823,0.11676 -0.0015,0.01459 -9.26e-4,0.0293 -0.0014,0.04396 0.0018,0.112657 -0.0032,0.225252 -0.02648,0.335922 -0.04547,0.209901 -0.09724,0.419414 -0.180994,0.617836 -0.05194,0.135687 -0.105382,0.27167 -0.175655,0.399086 -0.06108,0.111447 -0.124093,0.221354 -0.219408,0.308103 -0.136776,0.127532 -0.293118,0.230678 -0.463484,0.308446 -0.184632,0.07275 -0.374982,0.133836 -0.567245,0.182648 -0.243938,0.05803 -0.492741,0.09923 -0.744362,0.09501 -0.243672,-0.0091 -0.486696,-0.03411 -0.72468,-0.08917 -0.286336,-0.06267 -0.573659,-0.120652 -0.862857,-0.168694 -0.368318,-0.06682 -0.7353437,-0.141474 -1.1069107,-0.188887 -0.27265,-0.02982 -0.546883,-0.04696 -0.82088,-0.02318 -0.1928,0.01471 -0.384983,0.04233 -0.566992,0.110813 -0.200347,0.07662 -0.392847,0.171791 -0.564616,0.301812 -0.228266,0.163317 -0.4571171,0.327005 -0.6721398,0.50757 -0.1100989,0.107296 -0.1865209,0.211503 -0.2409677,0.356673 -0.00918,0.04597 -0.018301,0.07676 -0.015989,0.124156 0.00392,0.08031 0.035604,0.162534 0.073656,0.231759 0.015769,0.02347 0.059758,0.09437 0.085036,0.10955 0.6326605,0.379853 1.2379475,0.835079 1.9330505,1.09529 0.165711,0.05074 0.334751,0.09628 0.509882,0.0741 0.139036,-0.03027 0.270882,-0.07871 0.386829,-0.163355 0.125032,-0.08906 0.241105,-0.188803 0.3375437,-0.30909 0.08166,-0.118251 0.149665,-0.244872 0.20248,-0.378791 0.02967,-0.09618 0.06296,-0.19164 0.08194,-0.290743 0.0254,-0.13261 0.03775,-0.268046 0.05946,-0.401249 0.0097,-0.143373 0.02385,-0.286796 0.02196,-0.430677 -0.0019,-0.140936 -0.0098,-0.206918 -0.02532,-0.349638 -0.0077,-0.07037 -0.01635,-0.140633 -0.02452,-0.210949 -0.09957,-0.660443 -0.223339,-1.316281 -0.3718297,-1.967605 -0.0928,-0.428055 -0.186609,-0.855548 -0.263735,-1.28679 -0.02104,-0.1176474 -0.04566,-0.2348604 -0.05948,-0.3535734 -0.0158,-0.135752 -0.01205,-0.230929 -0.0098,-0.35641 z" />
</svg>
