<?xml version="1.0" encoding="UTF-8" standalone="no"?>
<!-- Created with Inkscape (http://www.inkscape.org/) -->

<svg
   width="22.299688mm"
   height="21.675467mm"
   viewBox="0 0 22.299688 21.675467"
   version="1.1"
   id="svg1"
   sodipodi:docname="logo.svg"
   inkscape:export-filename="C:\Users\danad\OneDrive\Desktop\logo.svg"
   inkscape:export-xdpi="96"
   inkscape:export-ydpi="96"
   inkscape:version="1.4.2 (f4327f4, 2025-05-13)"
   xmlns:inkscape="http://www.inkscape.org/namespaces/inkscape"
   xmlns:sodipodi="http://sodipodi.sourceforge.net/DTD/sodipodi-0.dtd"
   xmlns="http://www.w3.org/2000/svg"
   xmlns:svg="http://www.w3.org/2000/svg">
  <sodipodi:namedview
     id="namedview1"
     pagecolor="#ffffff"
     bordercolor="#000000"
     borderopacity="0.25"
     inkscape:showpageshadow="2"
     inkscape:pageopacity="0.0"
     inkscape:pagecheckerboard="0"
     inkscape:deskcolor="#d1d1d1"
     inkscape:document-units="mm"
     inkscape:zoom="0.3070718"
     inkscape:cx="589.43869"
     inkscape:cy="-232.84457"
     inkscape:window-width="1920"
     inkscape:window-height="1001"
     inkscape:window-x="-9"
     inkscape:window-y="-9"
     inkscape:window-maximized="1"
     inkscape:current-layer="svg1">
    <inkscape:page
       x="0"
       y="0"
       width="22.299688"
       height="21.675468"
       id="page1"
       margin="0"
       bleed="0" />
    <inkscape:page
       x="68.694839"
       y="33.661995"
       width="83.774193"
       height="73.11203"
       id="page2"
       margin="0"
       bleed="0" />
  </sodipodi:namedview>
  <defs
     id="defs1" />
  <ellipse
     style="fill:#c8a89a;fill-opacity:1;stroke:#b98a3c;stroke-width:0.253272;stroke-dasharray:0.253272, 0.506544;stroke-dashoffset:0;stroke-opacity:1"
     id="path4"
     cx="11.038883"
     cy="11.035296"
     rx="10.563397"
     ry="10.563546" />
  <path
     style="fill:#ffffff;fill-opacity:1;stroke:none;stroke-width:0.248;stroke-dasharray:0.248, 0.496001;stroke-dashoffset:0;stroke-opacity:1"
     id="path5"
     d="m 7.8818333,8.4579756 c 0.01977,0.04925 0.03952,0.09852 0.05933,0.14776 0.0421,0.104669 0.08902,0.207522 0.126404,0.313969 0.0441,0.125576 0.08055,0.25373 0.117815,0.3815 0.100012,0.342943 0.147903,0.528919 0.222628,0.8783624 0.03001,0.140321 0.05528,0.281613 0.08292,0.42242 0.121153,0.621743 0.210365,1.250266 0.240542,1.883203 0.02261,0.310444 0.0011,0.620312 -0.02242,0.929786 -0.01221,0.217054 -0.06821,0.426112 -0.153535,0.624964 -0.04713,0.116716 -0.117229,0.223037 -0.192574,0.323351 -0.07463,0.10596 -0.176386,0.188782 -0.290717,0.248319 -0.10874,0.06031 -0.211451,0.09569 -0.336588,0.09277 -0.157489,-0.02591 -0.306505,-0.07903 -0.4508176,-0.146207 -0.075881,-0.03308 -0.065216,-0.02511 -0.1355563,-0.06906 -0.021183,-0.01323 -0.084086,-0.05388 -0.062427,-0.04144 3.2945846,1.892049 1.9954849,1.237813 1.5076899,0.859535 -0.06082,-0.05347 -0.107238,-0.121074 -0.116355,-0.202724 0.01597,-0.100337 0.09081,-0.183759 0.153858,-0.259385 0.172366,-0.201471 0.389592,-0.353579 0.612141,-0.494055 0.175451,-0.11226 0.372879,-0.177877 0.570628,-0.237646 0.171765,-0.05039 0.3482367,-0.06707 0.5260207,-0.07866 0.256606,-0.01901 0.51148,-0.0043 0.766343,0.0272 0.364204,0.04388 0.723202,0.120874 1.083871,0.186585 0.301714,0.05362 0.596682,0.13691 0.895873,0.201901 0.245367,0.05131 0.49606,0.06226 0.745829,0.0548 0.180117,-0.0154 0.361234,-0.03645 0.5391,-0.06957 0.08057,-0.015 0.159911,-0.03602 0.240107,-0.05291 0.164975,-0.06088 0.34458,-0.08625 0.504822,-0.160293 0.0325,-0.01502 0.06316,-0.03373 0.09475,-0.0506 0.182097,-0.09682 0.347779,-0.215534 0.503669,-0.349736 0.110006,-0.101921 0.195964,-0.223895 0.269312,-0.353777 0.05578,-0.07751 0.07853,-0.168091 0.10618,-0.257609 0.08332,-0.269798 -0.03106,0.118963 0.05842,-0.188877 0.05224,-0.211789 0.133698,-0.414535 0.198251,-0.622671 0.03738,-0.11563 0.06092,-0.235216 0.07481,-0.355793 9.79e-4,-0.135232 0.0058,-0.270389 0.0116,-0.405494 9.26e-4,-0.248489 -0.01266,-0.497286 -0.02257,-0.745683 -0.006,-0.230204 -0.03453,-0.458296 -0.0809,-0.683643 C 16.262647,9.9146956 16.121716,9.6619846 15.96723,9.4064436 15.780787,9.1059546 15.595024,8.8049226 15.397801,8.5113406 15.247229,8.2963827 15.036459,8.1396737 14.826437,7.9874537 14.15684,7.5550248 13.445567,7.1737541 12.756439,6.7851397 12.67649,6.7400547 12.591989,6.7035665 12.509755,6.6627974 12.092077,6.4557247 12.326023,6.5722189 11.896496,6.3575174 11.612789,6.2105747 11.323678,6.0734703 11.030501,5.9464166 10.947841,5.9105944 10.865487,5.8737697 10.780906,5.8427528 10.616136,5.7823297 10.441449,5.7386332 10.272438,5.6925886 10.01148,5.6323046 9.7451433,5.5972596 9.4788183,5.571161 9.3941283,5.562861 9.3094263,5.552336 9.2243423,5.550719 9.0021103,5.546489 8.9142413,5.568335 8.6934823,5.599904 8.1518463,5.6877467 7.6362343,5.8804327 7.1160181,6.0476737 7.0349072,6.0775518 6.9534695,6.1065583 6.8726848,6.1373076 6.7932169,6.1675561 6.7150013,6.20106 6.6352882,6.2306563 6.3842753,6.3238534 6.1291199,6.405103 5.8735097,6.4844957 c -0.151596,0.036748 -0.2999624,0.087963 -0.4368652,0.1635059 -0.056746,0.031312 -0.1111123,0.066764 -0.1671505,0.099326 -0.05794,0.037601 -0.118536,0.070744 -0.1787332,0.104508 -0.014206,0.00797 -0.030139,0.012951 -0.043482,0.022294 -0.026969,0.018883 -0.049403,0.04355 -0.074848,0.064442 -0.040768,0.043897 -0.02177,0.020495 -0.056833,0.070338 0,0 1.7024749,1.0026734 1.7024749,1.0026734 v 0 C 6.6323467,7.990818 6.6237527,8.001633 6.6448717,7.979962 6.7211937,7.909674 6.8137282,7.8591477 6.895304,7.795382 7.0659023,7.6808632 7.2457878,7.6169256 7.4331953,7.5356919 7.8204073,7.36842 8.2065143,7.1981214 8.6039913,7.0559772 c 0.50396,-0.1809768 1.020475,-0.3417258 1.5517657,-0.4175834 0.08851,-0.00647 0.176805,-0.017203 0.26552,-0.019402 0.16049,-0.00398 0.3421,0.010964 0.501711,0.027982 0.261186,0.027848 0.52057,0.071325 0.773673,0.1427964 0.08335,0.025429 0.167457,0.048489 0.250046,0.076288 0.448895,0.1510927 0.874635,0.3633475 1.298944,0.5713185 0.105959,0.053784 0.212383,0.1066607 0.317878,0.1613514 0.107818,0.055896 0.215417,0.1122442 0.322035,0.1703964 0.09841,0.053674 0.389964,0.221275 0.292989,0.1650537 -0.462136,-0.2679248 -0.925926,-0.5329891 -1.388491,-0.8001733 -0.04851,-0.028018 0.09787,0.054535 0.14631,0.082671 0.04604,0.026743 0.0914,0.054636 0.137095,0.081954 0.207628,0.1348714 0.403179,0.2882196 0.579993,0.4619326 0.232957,0.2767126 0.439913,0.5757886 0.617423,0.8910021 0.05369,0.09699 0.112645,0.191142 0.162711,0.290049 0.07009,0.138461 0.11993,0.286518 0.162451,0.435309 0.0028,0.0099 0.05424,0.189355 0.05595,0.197072 0.03406,0.153905 0.04486,0.311868 0.06221,0.4681034 0.01295,0.13293 0.021,0.265726 0.01784,0.399449 -0.0027,0.116029 -0.009,0.115784 -0.01622,0.225178 -0.0019,0.02805 -0.0022,0.05618 -0.0033,0.08427 -0.0037,0.07687 -0.0085,0.153234 -0.0188,0.22956 -0.0053,0.03904 -0.01427,0.07757 -0.01823,0.11676 -0.0015,0.01459 -9.26e-4,0.0293 -0.0014,0.04396 0.0018,0.112657 -0.0032,0.225252 -0.02648,0.335922 -0.04547,0.209901 -0.09724,0.419414 -0.180994,0.617836 -0.05194,0.135687 -0.105382,0.27167 -0.175655,0.399086 -0.06108,0.111447 -0.124093,0.221354 -0.219408,0.308103 -0.136776,0.127532 -0.293118,0.230678 -0.463484,0.308446 -0.184632,0.07275 -0.374982,0.133836 -0.567245,0.182648 -0.243938,0.05803 -0.492741,0.09923 -0.744362,0.09501 -0.243672,-0.0091 -0.486696,-0.03411 -0.72468,-0.08917 -0.286336,-0.06267 -0.573659,-0.120652 -0.862857,-0.168694 -0.368318,-0.06682 -0.7353437,-0.141474 -1.1069107,-0.188887 -0.27265,-0.02982 -0.546883,-0.04696 -0.82088,-0.02318 -0.1928,0.01471 -0.384983,0.04233 -0.566992,0.110813 -0.200347,0.07662 -0.392847,0.171791 -0.564616,0.301812 -0.228266,0.163317 -0.4571171,0.327005 -0.6721398,0.50757 -0.1100989,0.107296 -0.1865209,0.211503 -0.2409677,0.356673 -0.00918,0.04597 -0.018301,0.07676 -0.015989,0.124156 0.00392,0.08031 0.035604,0.162534 0.073656,0.231759 0.015769,0.02347 0.059758,0.09437 0.085036,0.10955 0.6326605,0.379853 1.2379475,0.835079 1.9330505,1.09529 0.165711,0.05074 0.334751,0.09628 0.509882,0.0741 0.139036,-0.03027 0.270882,-0.07871 0.386829,-0.163355 0.125032,-0.08906 0.241105,-0.188803 0.3375437,-0.30909 0.08166,-0.118251 0.149665,-0.244872 0.20248,-0.378791 0.02967,-0.09618 0.06296,-0.19164 0.08194,-0.290743 0.0254,-0.13261 0.03775,-0.268046 0.05946,-0.401249 0.0097,-0.143373 0.02385,-0.286796 0.02196,-0.430677 -0.0019,-0.140936 -0.0098,-0.206918 -0.02532,-0.349638 -0.0077,-0.07037 -0.01635,-0.140633 -0.02452,-0.210949 -0.09957,-0.660443 -0.223339,-1.316281 -0.3718297,-1.967605 -0.0928,-0.428055 -0.186609,-0.855548 -0.263735,-1.28679 -0.02104,-0.1176474 -0.04566,-0.2348604 -0.05948,-0.3535734 -0.0158,-0.135752 -0.01205,-0.230929 -0.0098,-0.35641 z" />
  <ellipse
     style="fill:#c8a89a;fill-opacity:1;stroke:#b98a3c;stroke-width:0.832528;stroke-dasharray:0.832528, 1.66505;stroke-dashoffset:0;stroke-opacity:1"
     id="path4-8"
     cx="103.89463"
     cy="68.848389"
     rx="34.723927"
     ry="34.722229" />
  <path
     style="fill:#ffffff;fill-opacity:1;stroke:none;stroke-width:0.815198;stroke-dasharray:0.815198, 1.6304;stroke-dashoffset:0;stroke-opacity:1"
     id="path5-8"
     d="m 93.516788,60.376779 c 0.0651,0.161884 0.12985,0.323834 0.19493,0.485685 0.1384,0.344045 0.29256,0.682122 0.4155,1.032011 0.14497,0.412767 0.26495,0.834007 0.3873,1.253986 0.32875,1.127248 0.48618,1.738549 0.73183,2.887164 0.0986,0.461233 0.18178,0.925657 0.27251,1.388488 0.39824,2.04366 0.69149,4.109606 0.7907,6.190062 0.0743,1.020425 0.003,2.038956 -0.0736,3.056193 -0.0401,0.713453 -0.22419,1.400624 -0.50471,2.054248 -0.15483,0.383644 -0.38536,0.73312 -0.63302,1.062851 -0.24522,0.348288 -0.57983,0.620523 -0.95565,0.81622 -0.35745,0.198238 -0.69508,0.314532 -1.10644,0.304934 -0.5177,-0.08516 -1.00752,-0.259771 -1.4819,-0.480581 -0.2495,-0.108733 -0.21432,-0.08253 -0.44561,-0.226998 -0.0697,-0.04349 -0.27645,-0.177104 -0.20512,-0.136213 10.829922,6.219138 6.55953,4.068674 4.95607,2.825279 -0.19986,-0.175755 -0.35252,-0.397969 -0.3825,-0.666351 0.0526,-0.329806 0.29848,-0.604013 0.50577,-0.852595 0.56661,-0.662232 1.28065,-1.162209 2.01222,-1.623951 0.57674,-0.368998 1.22573,-0.58468 1.87577,-0.781139 0.564642,-0.165632 1.144732,-0.220459 1.729132,-0.258555 0.84353,-0.06248 1.68133,-0.01414 2.51914,0.0894 1.1972,0.144233 2.3773,0.397311 3.56289,0.613302 0.99178,0.176249 1.9614,0.450021 2.9449,0.663646 0.80658,0.168655 1.63064,0.204648 2.45169,0.180127 0.59208,-0.05062 1.18743,-0.119811 1.77212,-0.228676 0.26495,-0.0493 0.52566,-0.118397 0.78929,-0.173914 0.54229,-0.200111 1.1327,-0.283503 1.65944,-0.526881 0.10683,-0.04937 0.20775,-0.11087 0.31163,-0.166321 0.59856,-0.318247 1.14322,-0.708458 1.65565,-1.149578 0.36161,-0.335013 0.64417,-0.735939 0.88528,-1.162859 0.18336,-0.254775 0.25814,-0.552513 0.34903,-0.846758 0.27389,-0.886822 -0.1021,0.39103 0.19204,-0.620836 0.17172,-0.696147 0.43949,-1.36257 0.65169,-2.046711 0.12287,-0.380074 0.20026,-0.773152 0.24591,-1.169487 0.003,-0.444505 0.0191,-0.888764 0.0381,-1.332852 0.003,-0.816781 -0.0416,-1.634573 -0.0742,-2.45105 -0.0197,-0.756677 -0.1135,-1.506412 -0.26593,-2.247125 -0.22235,-0.965953 -0.68561,-1.79661 -1.19344,-2.63657 -0.61287,-0.987703 -1.22351,-1.977191 -1.87183,-2.942191 -0.49496,-0.706564 -1.1878,-1.221664 -1.87817,-1.72201 -2.20111,-1.421388 -4.53919,-2.67462 -6.8045,-3.951989 -0.26264,-0.14821 -0.54057,-0.268119 -0.81088,-0.402139 -1.37299,-0.680643 -0.60396,-0.297735 -2.0159,-1.003451 -0.93261,-0.482997 -1.88297,-0.933659 -2.84671,-1.35128 -0.27185,-0.11774 -0.54242,-0.2388 -0.82045,-0.340742 -0.54163,-0.1986 -1.11587,-0.342241 -1.67144,-0.493587 -0.85783,-0.19814 -1.733312,-0.313349 -2.608792,-0.399133 -0.27842,-0.02728 -0.55681,-0.06186 -0.83652,-0.06719 -0.73051,-0.0138 -1.01936,0.05792 -1.74504,0.161654 -1.78044,0.288729 -3.47535,0.922095 -5.18542,1.471814 -0.26659,0.09822 -0.53433,0.193538 -0.79987,0.294613 -0.26133,0.09943 -0.51836,0.209545 -0.78038,0.30684 -0.82512,0.306347 -1.66388,0.573405 -2.50412,0.834368 -0.4983,0.120797 -0.98602,0.289124 -1.43604,0.537442 -0.18671,0.102916 -0.36527,0.219439 -0.54945,0.326497 -0.19033,0.12359 -0.38967,0.232521 -0.58756,0.343516 -0.0467,0.0263 -0.0989,0.04257 -0.14299,0.07327 -0.0888,0.06206 -0.16239,0.143148 -0.24621,0.211813 -0.13413,0.144299 -0.0717,0.06738 -0.18672,0.231207 0,0 5.59639,3.295772 5.59639,3.295772 v 0 c 0.047,-0.06824 0.0197,-0.03255 0.0881,-0.103935 0.25081,-0.231042 0.55504,-0.397114 0.82321,-0.606712 0.56079,-0.376421 1.15209,-0.586582 1.76815,-0.853597 1.27283,-0.549821 2.54205,-1.109592 3.84864,-1.576816 1.65662,-0.594869 3.35449,-1.123249 5.100942,-1.37259 0.29092,-0.02136 0.58121,-0.05654 0.87281,-0.06377 0.52757,-0.01315 1.12455,0.03603 1.64922,0.09197 0.85858,0.09154 1.71122,0.234428 2.54324,0.469369 0.27382,0.08359 0.55044,0.159386 0.82193,0.250764 1.47562,0.49664 2.87511,1.19432 4.2699,1.877917 0.34831,0.176774 0.69813,0.35059 1.04493,0.530359 0.35439,0.183742 0.70809,0.368944 1.05858,0.56009 0.32345,0.176412 1.28187,0.72733 0.96311,0.54253 -1.51914,-0.880666 -3.04371,-1.751928 -4.56423,-2.630158 -0.15943,-0.0921 0.32181,0.179272 0.48094,0.271735 0.15121,0.08789 0.30045,0.179601 0.45065,0.269368 0.68251,0.44332 1.32533,0.947372 1.90657,1.518364 0.76575,0.909553 1.44607,1.892611 2.02958,2.928715 0.17652,0.318805 0.37027,0.628281 0.53486,0.953387 0.23043,0.455119 0.39423,0.941781 0.534,1.430855 0.01,0.03255 0.17817,0.622407 0.18408,0.647773 0.1121,0.505883 0.1476,1.025105 0.20447,1.538647 0.0427,0.43694 0.069,0.873438 0.0585,1.312984 -0.01,0.381385 -0.0296,0.38058 -0.0533,0.740156 -0.007,0.0922 -0.007,0.184664 -0.01,0.276995 -0.0131,0.252671 -0.0296,0.503678 -0.0618,0.754561 -0.0164,0.128323 -0.047,0.254971 -0.0598,0.383788 -0.007,0.04796 -0.003,0.0963 -0.003,0.144496 0.007,0.370302 -0.01,0.7404 -0.0871,1.10417 -0.14957,0.689943 -0.31952,1.378608 -0.59495,2.030819 -0.17061,0.446001 -0.34641,0.892976 -0.57743,1.31179 -0.20085,0.366324 -0.40791,0.727587 -0.72125,1.01273 -0.44958,0.419197 -0.9635,0.758236 -1.52354,1.013858 -0.60692,0.239128 -1.23264,0.439917 -1.86463,0.600362 -0.80188,0.190743 -1.61977,0.326167 -2.44689,0.312296 -0.80099,-0.02991 -1.59984,-0.112119 -2.38216,-0.2931 -0.94122,-0.205996 -1.88573,-0.396582 -2.83636,-0.554495 -1.21074,-0.219637 -2.41723,-0.465024 -3.638622,-0.62087 -0.89626,-0.09802 -1.79774,-0.154356 -2.6984,-0.07619 -0.63377,0.04836 -1.26553,0.139139 -1.86383,0.364241 -0.65856,0.251849 -1.29134,0.564675 -1.85599,0.992052 -0.75036,0.53682 -1.50264,1.07486 -2.20945,1.668375 -0.36192,0.35268 -0.61313,0.695207 -0.79212,1.17238 -0.0296,0.151103 -0.0602,0.252308 -0.0526,0.408098 0.0131,0.263978 0.11703,0.534247 0.24227,0.761789 0.0519,0.07715 0.19658,0.310192 0.27941,0.360089 2.07968,1.248571 4.06938,2.744893 6.35431,3.600203 0.54472,0.166782 1.10039,0.316471 1.67608,0.243566 0.45705,-0.0995 0.89043,-0.258719 1.27158,-0.536946 0.411,-0.292739 0.792582,-0.620592 1.109592,-1.015974 0.26857,-0.388689 0.49196,-0.804891 0.66559,-1.245081 0.0976,-0.316142 0.2071,-0.629918 0.26922,-0.955668 0.0835,-0.435887 0.12426,-0.881063 0.19559,-1.3189 0.0329,-0.471265 0.0786,-0.942694 0.0723,-1.415629 -0.007,-0.463255 -0.0329,-0.680137 -0.0832,-1.149255 -0.0263,-0.231306 -0.0536,-0.462259 -0.0805,-0.693387 -0.3274,-2.170867 -0.73416,-4.326597 -1.22227,-6.46749 -0.30506,-1.40701 -0.613432,-2.812174 -0.866972,-4.22966 -0.069,-0.386705 -0.15022,-0.771982 -0.19559,-1.16219 -0.0519,-0.446215 -0.0398,-0.75906 -0.0329,-1.171514 z" />
</svg>
